<?xml version="1.0" encoding="UTF-8" standalone="no"?>
<!-- Created with Inkscape (http://www.inkscape.org/) -->

<svg
   xmlns:dc="http://purl.org/dc/elements/1.1/"
   xmlns:cc="http://creativecommons.org/ns#"
   xmlns:rdf="http://www.w3.org/1999/02/22-rdf-syntax-ns#"
   xmlns:svg="http://www.w3.org/2000/svg"
   xmlns="http://www.w3.org/2000/svg"
   xmlns:xlink="http://www.w3.org/1999/xlink"
   xmlns:sodipodi="http://sodipodi.sourceforge.net/DTD/sodipodi-0.dtd"
   xmlns:inkscape="http://www.inkscape.org/namespaces/inkscape"
   width="519"
   height="476.11469"
   id="svg7150"
   sodipodi:version="0.32"
   inkscape:version="0.48.5 r10040"
   sodipodi:docname="filmstrip_active.svg"
   inkscape:output_extension="org.inkscape.output.svg.inkscape"
   version="1.0">
  <defs
     id="defs3">
    <linearGradient
       id="linearGradient3785">
      <stop
         style="stop-color:#00cb11;stop-opacity:1;"
         offset="0"
         id="stop3787" />
      <stop
         style="stop-color:#28ff1f;stop-opacity:0;"
         offset="1"
         id="stop3789" />
    </linearGradient>
    <linearGradient
       id="linearGradient3935">
      <stop
         style="stop-color:#808000;stop-opacity:1;"
         offset="0"
         id="stop3937" />
      <stop
         style="stop-color:#808000;stop-opacity:0;"
         offset="1"
         id="stop3939" />
    </linearGradient>
    <linearGradient
       id="linearGradient3925">
      <stop
         style="stop-color:#ffffff;stop-opacity:0;"
         offset="0"
         id="stop3927" />
      <stop
         id="stop3957"
         offset="0.5"
         style="stop-color:#ffffff;stop-opacity:0.55000001;" />
      <stop
         style="stop-color:#ffffff;stop-opacity:0;"
         offset="1"
         id="stop3929" />
    </linearGradient>
    <linearGradient
       id="linearGradient3913">
      <stop
         style="stop-color:#000000;stop-opacity:1;"
         offset="0"
         id="stop3915" />
      <stop
         style="stop-color:#000000;stop-opacity:0;"
         offset="1"
         id="stop3917" />
    </linearGradient>
    <inkscape:perspective
       sodipodi:type="inkscape:persp3d"
       inkscape:vp_x="0 : 526.18109 : 1"
       inkscape:vp_y="0 : 1000 : 0"
       inkscape:vp_z="744.09448 : 526.18109 : 1"
       inkscape:persp3d-origin="372.04724 : 350.78739 : 1"
       id="perspective7156" />
    <inkscape:perspective
       id="perspective7542"
       inkscape:persp3d-origin="372.04724 : 350.78739 : 1"
       inkscape:vp_z="744.09448 : 526.18109 : 1"
       inkscape:vp_y="0 : 1000 : 0"
       inkscape:vp_x="0 : 526.18109 : 1"
       sodipodi:type="inkscape:persp3d" />
    <linearGradient
       inkscape:collect="always"
       xlink:href="#linearGradient3913"
       id="linearGradient3919"
       x1="17"
       y1="239.11469"
       x2="510"
       y2="239.11469"
       gradientUnits="userSpaceOnUse" />
    <linearGradient
       inkscape:collect="always"
       xlink:href="#linearGradient3925"
       id="linearGradient3931"
       x1="-61"
       y1="-3.3853149"
       x2="565"
       y2="507.61469"
       gradientUnits="userSpaceOnUse" />
    <radialGradient
       inkscape:collect="always"
       xlink:href="#linearGradient3935"
       id="radialGradient3943"
       cx="259.5"
       cy="236.61469"
       fx="259.5"
       fy="236.61469"
       r="259.5"
       gradientTransform="matrix(0.80188284,-0.5974813,0.07321773,0.0982659,34.087013,368.40993)"
       gradientUnits="userSpaceOnUse" />
    <linearGradient
       inkscape:collect="always"
       xlink:href="#linearGradient3925"
       id="linearGradient3955"
       x1="311"
       y1="232.11469"
       x2="360"
       y2="285.11469"
       gradientUnits="userSpaceOnUse"
       gradientTransform="matrix(1.2582939,0,0,1.1843434,-279.51184,195.44121)" />
    <linearGradient
       inkscape:collect="always"
       xlink:href="#linearGradient3925-0"
       id="linearGradient3955-6"
       x1="311"
       y1="232.11469"
       x2="360"
       y2="285.11469"
       gradientUnits="userSpaceOnUse"
       gradientTransform="matrix(1.2582939,0,0,1.1843434,-279.51184,195.44121)" />
    <linearGradient
       id="linearGradient3925-0">
      <stop
         style="stop-color:#ffffff;stop-opacity:0;"
         offset="0"
         id="stop3927-4" />
      <stop
         id="stop3957-9"
         offset="0.5"
         style="stop-color:#ffffff;stop-opacity:0.55000001;" />
      <stop
         style="stop-color:#ffffff;stop-opacity:0;"
         offset="1"
         id="stop3929-4" />
    </linearGradient>
    <linearGradient
       y2="285.11469"
       x2="360"
       y1="232.11469"
       x1="311"
       gradientTransform="matrix(1.2582939,0,0,1.1843434,-223.01184,129.94122)"
       gradientUnits="userSpaceOnUse"
       id="linearGradient3975"
       xlink:href="#linearGradient3925-0"
       inkscape:collect="always" />
    <linearGradient
       inkscape:collect="always"
       xlink:href="#linearGradient3925"
       id="linearGradient4000"
       gradientUnits="userSpaceOnUse"
       gradientTransform="matrix(1.2582939,0,0,1.1843434,-279.51184,195.44121)"
       x1="311"
       y1="232.11469"
       x2="360"
       y2="285.11469" />
    <linearGradient
       inkscape:collect="always"
       xlink:href="#linearGradient3925-0"
       id="linearGradient4002"
       gradientUnits="userSpaceOnUse"
       gradientTransform="matrix(1.2582939,0,0,1.1843434,-223.01184,129.94122)"
       x1="311"
       y1="232.11469"
       x2="360"
       y2="285.11469" />
    <linearGradient
       inkscape:collect="always"
       xlink:href="#linearGradient3925"
       id="linearGradient4011"
       gradientUnits="userSpaceOnUse"
       gradientTransform="matrix(1.2582939,0,0,1.1843434,-279.51184,195.44121)"
       x1="311"
       y1="232.11469"
       x2="360"
       y2="285.11469" />
    <linearGradient
       inkscape:collect="always"
       xlink:href="#linearGradient3925-0"
       id="linearGradient4013"
       gradientUnits="userSpaceOnUse"
       gradientTransform="matrix(1.2582939,0,0,1.1843434,-223.01184,129.94122)"
       x1="311"
       y1="232.11469"
       x2="360"
       y2="285.11469" />
    <linearGradient
       inkscape:collect="always"
       xlink:href="#linearGradient3925"
       id="linearGradient4020"
       gradientUnits="userSpaceOnUse"
       gradientTransform="matrix(1.2582939,0,0,1.1843434,-279.51184,195.44121)"
       x1="311"
       y1="232.11469"
       x2="360"
       y2="285.11469" />
    <linearGradient
       inkscape:collect="always"
       xlink:href="#linearGradient3925-0"
       id="linearGradient4022"
       gradientUnits="userSpaceOnUse"
       gradientTransform="matrix(1.2582939,0,0,1.1843434,-223.01184,129.94122)"
       x1="311"
       y1="232.11469"
       x2="360"
       y2="285.11469" />
    <linearGradient
       inkscape:collect="always"
       xlink:href="#linearGradient3925-0"
       id="linearGradient4025"
       gradientUnits="userSpaceOnUse"
       gradientTransform="matrix(1.5688515,0,0,1.4856918,-220.95519,-178.63996)"
       x1="311"
       y1="232.11469"
       x2="360"
       y2="285.11469" />
    <linearGradient
       inkscape:collect="always"
       xlink:href="#linearGradient3925"
       id="linearGradient4028"
       gradientUnits="userSpaceOnUse"
       gradientTransform="matrix(1.5688515,0,0,1.4856918,-205.55926,47.413816)"
       x1="311"
       y1="232.11469"
       x2="360"
       y2="285.11469" />
    <linearGradient
       inkscape:collect="always"
       xlink:href="#linearGradient3925-0"
       id="linearGradient4032"
       gradientUnits="userSpaceOnUse"
       gradientTransform="matrix(1.5688515,0,0,1.4856918,-183.19783,-63.036485)"
       x1="311"
       y1="232.11469"
       x2="360"
       y2="285.11469" />
    <linearGradient
       inkscape:collect="always"
       xlink:href="#linearGradient3785"
       id="linearGradient3791"
       x1="-533.5849"
       y1="4.3500667"
       x2="221.58875"
       y2="763.78271"
       gradientUnits="userSpaceOnUse"
       gradientTransform="translate(688.72201,72.124888)" />
  </defs>
  <sodipodi:namedview
     inkscape:document-units="mm"
     id="base"
     pagecolor="#ffffff"
     bordercolor="#666666"
     borderopacity="1.0"
     inkscape:pageopacity="0.0"
     inkscape:pageshadow="2"
     inkscape:zoom="0.70710678"
     inkscape:cx="-351.63462"
     inkscape:cy="46.405275"
     inkscape:current-layer="layer1"
     showgrid="false"
     showguides="true"
     inkscape:guide-bbox="true"
     inkscape:window-width="1920"
     inkscape:window-height="1005"
     inkscape:window-x="-9"
     inkscape:window-y="-9"
     inkscape:window-maximized="1"
     units="mm">
    <sodipodi:guide
       orientation="0,1"
       position="82,737.5"
       id="guide7659" />
  </sodipodi:namedview>
  <metadata
     id="metadata4">
    <rdf:RDF>
      <cc:Work
         rdf:about="">
        <dc:format>image/svg+xml</dc:format>
        <dc:type
           rdf:resource="http://purl.org/dc/dcmitype/StillImage" />
        <dc:title />
      </cc:Work>
    </rdf:RDF>
  </metadata>
  <g
     inkscape:label="Layer 1"
     inkscape:groupmode="layer"
     id="layer1"
     transform="translate(-42,-121.26033)">
    <rect
       style="opacity:1;fill:#2c2c2c;fill-opacity:1;fill-rule:nonzero;stroke:none;stroke-width:7.08661413;stroke-linecap:round;stroke-linejoin:round;stroke-miterlimit:4;stroke-dasharray:none;stroke-dashoffset:0;stroke-opacity:1"
       id="rect7739"
       width="0"
       height="2.8284271"
       x="354.2605"
       y="773.76208" />
    <path
       id="path7732"
       d="m 42.000005,121.26034 0,476.11467 518.999995,0 0,-476.11467 -225.64028,0 c -6.94246,12.5209 -20.28817,21.00506 -35.61014,21.00506 -15.32198,0 -28.66768,-8.48416 -35.61014,-21.00506 l -222.139435,0 z m 28.00674,25.38111 16.62901,0 c 3.39406,0 6.12647,2.73241 6.12647,6.12648 l 0,28.88195 c 0,3.39407 -2.73241,6.12648 -6.12647,6.12648 l -16.62901,0 c -3.39407,0 -6.12647,-2.73241 -6.12647,-6.12648 l 0,-28.88195 c 0,-3.39407 2.7324,-6.12648 6.12647,-6.12648 z m 65.148495,0 16.629,0 c 3.39407,0 6.12648,2.73241 6.12648,6.12648 l 0,28.88195 c 0,3.39407 -2.73241,6.12648 -6.12648,6.12648 l -16.629,0 c -3.39407,0 -6.12648,-2.73241 -6.12648,-6.12648 l 0,-28.88195 c 0,-3.39407 2.73241,-6.12648 6.12648,-6.12648 z m 65.12115,0 16.62902,0 c 3.39406,0 6.12647,2.73241 6.12647,6.12648 l 0,28.88195 c 0,3.39407 -2.73241,6.12648 -6.12647,6.12648 l -16.62902,0 c -3.39407,0 -6.12647,-2.73241 -6.12647,-6.12648 l 0,-28.88195 c 0,-3.39407 2.7324,-6.12648 6.12647,-6.12648 z m 65.14852,0 16.629,0 c 3.39407,0 6.12648,2.73241 6.12648,6.12648 l 0,28.88195 c 0,3.39407 -2.73241,6.12648 -6.12648,6.12648 l -16.629,0 c -3.39407,0 -6.12648,-2.73241 -6.12648,-6.12648 l 0,-28.88195 c 0,-3.39407 2.73241,-6.12648 6.12648,-6.12648 z m 65.1485,0 16.629,0 c 3.39407,0 6.12648,2.73241 6.12648,6.12648 l 0,28.88195 c 0,3.39407 -2.73241,6.12648 -6.12648,6.12648 l -16.629,0 c -3.39407,0 -6.12648,-2.73241 -6.12648,-6.12648 l 0,-28.88195 c 0,-3.39407 2.73241,-6.12648 6.12648,-6.12648 z m 65.1485,0 16.629,0 c 3.39406,0 6.12647,2.73241 6.12647,6.12648 l 0,28.88195 c 0,3.39407 -2.73241,6.12648 -6.12647,6.12648 l -16.629,0 c -3.39407,0 -6.12647,-2.73241 -6.12647,-6.12648 l 0,-28.88195 c 0,-3.39407 2.7324,-6.12648 6.12647,-6.12648 z m 65.12114,0 16.62901,0 c 3.39407,0 6.12648,2.73241 6.12648,6.12648 l 0,28.88195 c 0,3.39407 -2.73241,6.12648 -6.12648,6.12648 l -16.62901,0 c -3.39406,0 -6.12647,-2.73241 -6.12647,-6.12648 l 0,-28.88195 c 0,-3.39407 2.73241,-6.12648 6.12647,-6.12648 z m 65.14852,0 16.62899,0 c 3.39407,0 6.12648,2.73241 6.12648,6.12648 l 0,28.88195 c 0,3.39407 -2.73241,6.12648 -6.12648,6.12648 l -16.62899,0 c -3.39408,0 -6.12648,-2.73241 -6.12648,-6.12648 l 0,-28.88195 c 0,-3.39407 2.7324,-6.12648 6.12648,-6.12648 z m -460.360875,49.01181 471.738605,0 c 6.78813,0 12.25295,5.46481 12.25295,12.25295 l 0,300.1973 c 0,6.78813 -5.46482,12.25295 -12.25295,12.25295 l -471.738605,0 c -6.78814,0 -12.25295,-5.46482 -12.25295,-12.25295 l 0,-300.1973 c 0,-6.78814 5.46481,-12.25295 12.25295,-12.25295 z m 3.50084,334.33052 16.62901,0 c 3.39406,0 6.12647,2.73241 6.12647,6.12647 l 0,28.88196 c 0,3.39407 -2.73241,6.12648 -6.12647,6.12648 l -16.62901,0 c -3.39407,0 -6.12648,-2.73241 -6.12648,-6.12648 l 0,-28.88196 c 0,-3.39406 2.73241,-6.12647 6.12648,-6.12647 z m 65.148495,0 16.629,0 c 3.39407,0 6.12648,2.73241 6.12648,6.12647 l 0,28.88196 c 0,3.39407 -2.73241,6.12648 -6.12648,6.12648 l -16.629,0 c -3.39407,0 -6.12648,-2.73241 -6.12648,-6.12648 l 0,-28.88196 c 0,-3.39406 2.73241,-6.12647 6.12648,-6.12647 z m 65.12115,0 16.62902,0 c 3.39406,0 6.12647,2.73241 6.12647,6.12647 l 0,28.88196 c 0,3.39407 -2.73241,6.12648 -6.12647,6.12648 l -16.62902,0 c -3.39407,0 -6.12646,-2.73241 -6.12646,-6.12648 l 0,-28.88196 c 0,-3.39406 2.73239,-6.12647 6.12646,-6.12647 z m 65.14851,0 16.62901,0 c 3.39407,0 6.12647,2.73241 6.12647,6.12647 l 0,28.88196 c 0,3.39407 -2.7324,6.12648 -6.12647,6.12648 l -16.62901,0 c -3.39406,0 -6.12647,-2.73241 -6.12647,-6.12648 l 0,-28.88196 c 0,-3.39406 2.73241,-6.12647 6.12647,-6.12647 z m 65.14851,0 16.629,0 c 3.39407,0 6.12648,2.73241 6.12648,6.12647 l 0,28.88196 c 0,3.39407 -2.73241,6.12648 -6.12648,6.12648 l -16.629,0 c -3.39407,0 -6.12648,-2.73241 -6.12648,-6.12648 l 0,-28.88196 c 0,-3.39406 2.73241,-6.12647 6.12648,-6.12647 z m 65.1485,0 16.629,0 c 3.39407,0 6.12647,2.73241 6.12647,6.12647 l 0,28.88196 c 0,3.39407 -2.7324,6.12648 -6.12647,6.12648 l -16.629,0 c -3.39407,0 -6.12647,-2.73241 -6.12647,-6.12648 l 0,-28.88196 c 0,-3.39406 2.7324,-6.12647 6.12647,-6.12647 z m 65.12114,0 16.62901,0 c 3.39407,0 6.12648,2.73241 6.12648,6.12647 l 0,28.88196 c 0,3.39407 -2.73241,6.12648 -6.12648,6.12648 l -16.62901,0 c -3.39405,0 -6.12647,-2.73241 -6.12647,-6.12648 l 0,-28.88196 c 0,-3.39406 2.73241,-6.12647 6.12647,-6.12647 z m 65.14851,0 16.62901,0 c 3.39406,0 6.12647,2.73241 6.12647,6.12647 l 0,28.88196 c 0,3.39407 -2.73241,6.12648 -6.12647,6.12648 l -16.62901,0 c -3.39406,0 -6.12648,-2.73241 -6.12648,-6.12648 l 0,-28.88196 c 0,-3.39406 2.73242,-6.12647 6.12648,-6.12647 z"
       style="fill:url(#linearGradient3791);fill-opacity:1;fill-rule:nonzero;stroke:none"
       inkscape:connector-curvature="0" />
    <rect
       style="fill:url(#linearGradient4028);fill-opacity:1"
       id="rect3947"
       width="662.0553"
       height="588.33398"
       x="-14.15938"
       y="142.66844"
       ry="13.79526" />
  </g>
</svg>
