<?xml version="1.0" encoding="UTF-8" standalone="no"?>
<!-- Created with Inkscape (http://www.inkscape.org/) -->

<svg
   xmlns:dc="http://purl.org/dc/elements/1.1/"
   xmlns:cc="http://creativecommons.org/ns#"
   xmlns:rdf="http://www.w3.org/1999/02/22-rdf-syntax-ns#"
   xmlns:svg="http://www.w3.org/2000/svg"
   xmlns="http://www.w3.org/2000/svg"
   xmlns:sodipodi="http://sodipodi.sourceforge.net/DTD/sodipodi-0.dtd"
   xmlns:inkscape="http://www.inkscape.org/namespaces/inkscape"
   width="64"
   height="64"
   viewBox="0 0 64.000001 64.000001"
   id="svg7672"
   version="1.1"
   inkscape:version="0.48.5 r10040"
   sodipodi:docname="cut100.svg">
  <defs
     id="defs7674" />
  <sodipodi:namedview
     id="base"
     pagecolor="#ffffff"
     bordercolor="#666666"
     borderopacity="1.0"
     inkscape:pageopacity="0.0"
     inkscape:pageshadow="2"
     inkscape:zoom="2.8284271"
     inkscape:cx="-153.37349"
     inkscape:cy="86.348207"
     inkscape:document-units="px"
     inkscape:current-layer="layer1"
     showgrid="false"
     units="px"
     inkscape:showpageshadow="false"
     inkscape:window-width="1920"
     inkscape:window-height="1005"
     inkscape:window-x="-9"
     inkscape:window-y="-9"
     inkscape:window-maximized="1" />
  <metadata
     id="metadata7677">
    <rdf:RDF>
      <cc:Work
         rdf:about="">
        <dc:format>image/svg+xml</dc:format>
        <dc:type
           rdf:resource="http://purl.org/dc/dcmitype/StillImage" />
        <dc:title />
      </cc:Work>
    </rdf:RDF>
  </metadata>
  <g
     inkscape:label="Ebene 1"
     inkscape:groupmode="layer"
     id="layer1"
     transform="translate(0,-988.36216)">
    <rect
       style="fill:#999999;stroke:none"
       id="rect7680"
       width="64"
       height="64"
       x="0"
       y="988.36218"
       ry="15.55635" />
    <g
       id="g3043"
       transform="translate(0.00393815,988.33067)">
      <path
         id="path3045"
         d="m 8.7519683,3.4370078 46.4881877,0 c 2.976378,0 5.350394,2.3740157 5.350394,5.3503935 l 0,46.4881877 c 0,2.976378 -2.374016,5.350394 -5.350394,5.350394 l -46.4881877,0 c -2.9763779,0 -5.3503936,-2.374016 -5.3503936,-5.350394 l 0,-46.4881877 c 0,-2.9763778 2.3740157,-5.3503935 5.3503936,-5.3503935 z"
         style="fill:none;stroke:#7d7d7d;stroke-width:6.76771641px;stroke-linecap:butt;stroke-linejoin:miter;stroke-miterlimit:4;stroke-opacity:1;stroke-dasharray:none"
         inkscape:connector-curvature="0" />
    </g>
    <path
       style="opacity:0.55000000000000004;fill:#333333;fill-opacity:1;fill-rule:nonzero;stroke:#656565;stroke-width:0;stroke-miterlimit:4;stroke-opacity:1;stroke-dasharray:none;display:inline"
       d="m 18.661112,1043.0375 c -1.43132,-2.4269 -3.88299,-5.9198 -6.76724,-9.6414 -1.25025,-1.6132 -2.4491002,-3.1762 -2.6641102,-3.4732 l -0.39092,-0.5401 3.6207102,-2.6307 c 3.44982,-2.5065 4.3958,-3.1492 4.47007,-3.0366 0.0182,0.028 0.32946,0.5387 0.69162,1.1359 1.44711,2.3861 3.29546,4.3201 4.63154,4.8462 1.3687,0.5389 1.77457,0.3814 2.38239,-0.924 2.50266,-5.3751 8.69219,-16.1391 12.24198,-21.2897 2.88416,-4.1849 6.04136,-7.97976 7.88437,-9.47676 1.96263,-1.5941 4.17078,-2.3006 6.91779,-2.2132 1.51732,0.048 1.79868,0.101 2.35631,0.4415 1.49156,0.9106 1.49948,1.7242 0.0308,3.1674 -1.80595,1.77486 -4.83888,5.13456 -6.0308,6.68066 -7.14882,9.2734 -15.17734,24.1366 -19.70973,36.4887 l -0.86794,2.3654 -3.83815,0 -3.83815,0 -1.1206,-1.9001 0,0 z"
       id="path3040"
       inkscape:connector-curvature="0" />
  </g>
</svg>
